<svg xmlns="http://www.w3.org/2000/svg" width="1100" height="950" viewBox="0 0 1100 950">
<defs>
<marker id="arr" markerWidth="10" markerHeight="8" refX="9" refY="3" orient="auto"><path d="M0,0 L0,6 L9,3 z" fill="#1890FF"/></marker>
<style>text{font-family:"Microsoft YaHei","SimHei",sans-serif;}</style>
</defs>
<rect width="1100" height="950" fill="#F5F5F5"/>
<text x="550" y="38" font-size="20" font-weight="bold" text-anchor="middle" fill="#1a1a1a">智能导医系统 — 数据流转时序图</text>
<rect x="110.33333333333331" y="90" width="96" height="38" fill="#1890FF" rx="8"/>
<text x="158.33333333333331" y="115" font-size="12" font-weight="bold" text-anchor="middle" fill="white">用户</text>
<line x1="158.33333333333331" y1="128" x2="158.33333333333331" y2="840" stroke="#ccc" stroke-width="1.5" stroke-dasharray="6,4"/>
<rect x="110.33333333333331" y="840" width="96" height="38" fill="#1890FF" rx="8"/>
<text x="158.33333333333331" y="865" font-size="12" font-weight="bold" text-anchor="middle" fill="white">用户</text>
<rect x="267.0" y="90" width="96" height="38" fill="#1890FF" rx="8"/>
<text x="315.0" y="115" font-size="12" font-weight="bold" text-anchor="middle" fill="white">GUI界面</text>
<line x1="315.0" y1="128" x2="315.0" y2="840" stroke="#ccc" stroke-width="1.5" stroke-dasharray="6,4"/>
<rect x="267.0" y="840" width="96" height="38" fill="#1890FF" rx="8"/>
<text x="315.0" y="865" font-size="12" font-weight="bold" text-anchor="middle" fill="white">GUI界面</text>
<rect x="423.6666666666667" y="90" width="96" height="38" fill="#1890FF" rx="8"/>
<text x="471.6666666666667" y="115" font-size="12" font-weight="bold" text-anchor="middle" fill="white">症状提取</text>
<line x1="471.6666666666667" y1="128" x2="471.6666666666667" y2="840" stroke="#ccc" stroke-width="1.5" stroke-dasharray="6,4"/>
<rect x="423.6666666666667" y="840" width="96" height="38" fill="#1890FF" rx="8"/>
<text x="471.6666666666667" y="865" font-size="12" font-weight="bold" text-anchor="middle" fill="white">症状提取</text>
<rect x="580.3333333333334" y="90" width="96" height="38" fill="#1890FF" rx="8"/>
<text x="628.3333333333334" y="115" font-size="12" font-weight="bold" text-anchor="middle" fill="white">专家系统</text>
<line x1="628.3333333333334" y1="128" x2="628.3333333333334" y2="840" stroke="#ccc" stroke-width="1.5" stroke-dasharray="6,4"/>
<rect x="580.3333333333334" y="840" width="96" height="38" fill="#1890FF" rx="8"/>
<text x="628.3333333333334" y="865" font-size="12" font-weight="bold" text-anchor="middle" fill="white">专家系统</text>
<rect x="737.0" y="90" width="96" height="38" fill="#1890FF" rx="8"/>
<text x="785.0" y="115" font-size="12" font-weight="bold" text-anchor="middle" fill="white">深度学习</text>
<line x1="785.0" y1="128" x2="785.0" y2="840" stroke="#ccc" stroke-width="1.5" stroke-dasharray="6,4"/>
<rect x="737.0" y="840" width="96" height="38" fill="#1890FF" rx="8"/>
<text x="785.0" y="865" font-size="12" font-weight="bold" text-anchor="middle" fill="white">深度学习</text>
<rect x="893.6666666666666" y="90" width="96" height="38" fill="#1890FF" rx="8"/>
<text x="941.6666666666666" y="115" font-size="12" font-weight="bold" text-anchor="middle" fill="white">数据库</text>
<line x1="941.6666666666666" y1="128" x2="941.6666666666666" y2="840" stroke="#ccc" stroke-width="1.5" stroke-dasharray="6,4"/>
<rect x="893.6666666666666" y="840" width="96" height="38" fill="#1890FF" rx="8"/>
<text x="941.6666666666666" y="865" font-size="12" font-weight="bold" text-anchor="middle" fill="white">数据库</text>
<line x1="158.33333333333331" y1="180" x2="315.0" y2="180" stroke="#333" stroke-width="1.8" marker-end="url(#arr)"/>
<text x="236.66666666666666" y="173" font-size="10" text-anchor="middle" fill="#333">语音/文字输入症状</text>
<line x1="315.0" y1="240" x2="471.6666666666667" y2="240" stroke="#1890FF" stroke-width="1.8" marker-end="url(#arr)"/>
<text x="393.33333333333337" y="233" font-size="10" text-anchor="middle" fill="#1890FF">提交文本进行症状提取</text>
<line x1="471.6666666666667" y1="300" x2="941.6666666666666" y2="300" stroke="#52C41A" stroke-width="1.8" marker-end="url(#arr)"/>
<text x="706.6666666666666" y="293" font-size="10" text-anchor="middle" fill="#52C41A">查询症状知识库</text>
<line x1="941.6666666666666" y1="350" x2="471.6666666666667" y2="350" stroke="#52C41A" stroke-width="1.8" marker-end="url(#arr)"/>
<text x="706.6666666666666" y="343" font-size="10" text-anchor="middle" fill="#52C41A">返回症状匹配结果</text>
<line x1="471.6666666666667" y1="400" x2="315.0" y2="400" stroke="#333" stroke-width="1.8" marker-end="url(#arr)"/>
<text x="393.33333333333337" y="393" font-size="10" text-anchor="middle" fill="#333">返回结构化症状列表</text>
<line x1="315.0" y1="460" x2="628.3333333333334" y2="460" stroke="#1890FF" stroke-width="1.8" marker-end="url(#arr)"/>
<text x="471.6666666666667" y="453" font-size="10" text-anchor="middle" fill="#1890FF">提交症状进行规则推理</text>
<line x1="628.3333333333334" y1="520" x2="941.6666666666666" y2="520" stroke="#FA8C16" stroke-width="1.8" marker-end="url(#arr)"/>
<text x="785.0" y="513" font-size="10" text-anchor="middle" fill="#FA8C16">查询规则库与科室数据</text>
<line x1="941.6666666666666" y1="565" x2="628.3333333333334" y2="565" stroke="#FA8C16" stroke-width="1.8" marker-end="url(#arr)"/>
<text x="785.0" y="558" font-size="10" text-anchor="middle" fill="#FA8C16">返回匹配规则</text>
<line x1="628.3333333333334" y1="610" x2="628.3333333333334" y2="610" stroke="#333" stroke-width="1.8" marker-end="url(#arr)"/>
<text x="628.3333333333334" y="603" font-size="10" text-anchor="middle" fill="#333">加权计算置信度</text>
<line x1="628.3333333333334" y1="660" x2="315.0" y2="660" stroke="#722ED1" stroke-width="1.8" marker-end="url(#arr)"/>
<text x="471.6666666666667" y="653" font-size="10" text-anchor="middle" fill="#722ED1">返回分诊结果</text>
<line x1="315.0" y1="710" x2="785.0" y2="710" stroke="#EB2F96" stroke-width="1.8" marker-end="url(#arr)"/>
<text x="550.0" y="703" font-size="10" text-anchor="middle" fill="#EB2F96">深度学习辅助验证</text>
<line x1="785.0" y1="750" x2="315.0" y2="750" stroke="#EB2F96" stroke-width="1.8" marker-end="url(#arr)"/>
<text x="550.0" y="743" font-size="10" text-anchor="middle" fill="#EB2F96">返回优化建议</text>
<line x1="315.0" y1="790" x2="941.6666666666666" y2="790" stroke="#333" stroke-width="1.8" marker-end="url(#arr)"/>
<text x="628.3333333333333" y="783" font-size="10" text-anchor="middle" fill="#333">保存分诊记录</text>
<line x1="315.0" y1="830" x2="158.33333333333331" y2="830" stroke="#333" stroke-width="1.8" marker-end="url(#arr)"/>
<text x="236.66666666666666" y="823" font-size="10" text-anchor="middle" fill="#333">展示分诊结果与导航路线</text>
<text x="550" y="932" font-size="12" text-anchor="middle" fill="#888">图2：系统数据流转时序图（展示用户、界面与各模块间的交互顺序）</text>
</svg>